<?xml version="1.0" encoding="utf-8"?>
<!-- Generator: Adobe Illustrator 19.0.0, SVG Export Plug-In . SVG Version: 6.00 Build 0)  -->
<svg version="1.1" id="Layer_wechat" xmlns="http://www.w3.org/2000/svg" xmlns:xlink="http://www.w3.org/1999/xlink" x="0px" y="0px"
	 viewBox="0 0 128 128" style="enable-background:new 0 0 128 128;" xml:space="preserve">
<style type="text/css">
	.st0{fill:#71B63A;}
	.st1{fill:#FFFFFF;}
</style>
<g id="XMLID_1_">
	<g id="XMLID_2_">
		<g id="XMLID_3_">
			<g id="XMLID_4_">
				<path id="XMLID_15_" class="st0" d="M64,128L64,128C28.7,128,0,99.3,0,64v0C0,28.7,28.7,0,64,0h0c35.3,0,64,28.7,64,64v0
					C128,99.3,99.3,128,64,128z"/>
			</g>
		</g>
	</g>
	<g id="XMLID_5_">
		<path id="XMLID_6_" class="st1" d="M105.4,73.5c0-11.7-11.7-21.3-24.9-21.3c-14,0-25,9.6-25,21.3c0,11.7,11,21.3,25,21.3
			c2.9,0,5.9-0.7,8.8-1.5l8,4.4l-2.2-7.3C101.1,86,105.4,80.2,105.4,73.5z M72.3,70.7c-1.9,0-3.7-1.8-3.7-3.7c0-1.9,1.9-3.7,3.7-3.7
			c2.8,0,4.7,1.9,4.7,3.7C77,68.8,75.2,70.7,72.3,70.7z M88.5,70.7c-1.9,0-3.7-1.9-3.7-3.8c0-1.9,1.9-3.8,3.7-3.8
			c2.8,0,4.7,1.9,4.7,3.8C93.2,68.8,91.3,70.7,88.5,70.7z"/>
		<path id="XMLID_7_" class="st1" d="M80.5,48.7c0.1,0,0.3,0,0.4,0c-3.5-10.7-15.5-18.5-29-18.5c-16.1,0-29.3,11-29.3,25
			c0,8.1,4.4,14.7,11.7,19.8l-2.9,8.8l10.3-5.1c3.7,0.7,6.6,1.5,10.3,1.5c0.3,0,0.6,0,0.9,0c-0.7-2.2-1.1-4.4-1.1-6.8
			C51.7,59.8,64.4,48.7,80.5,48.7z M62.9,42.7c2.2,0,3.7,1.5,3.7,3.7c0,2.2-1.5,3.7-3.7,3.7c-2.2,0-4.4-1.5-4.4-3.7
			C58.5,44.2,60.7,42.7,62.9,42.7z M42.4,50c-2.2,0-4.4-1.5-4.4-3.7c0-2.2,2.2-3.7,4.4-3.7c2.2,0,3.7,1.5,3.7,3.7
			C46,48.6,44.6,50,42.4,50z"/>
	</g>
</g>
</svg>
