<?xml version="1.0" encoding="utf-8"?>
<!-- Generator: Adobe Illustrator 19.0.0, SVG Export Plug-In . SVG Version: 6.00 Build 0)  -->
<svg version="1.1" id="Layer_weibo" xmlns="http://www.w3.org/2000/svg" xmlns:xlink="http://www.w3.org/1999/xlink" x="0px" y="0px"
	 viewBox="0 0 128 128" style="enable-background:new 0 0 128 128;" xml:space="preserve">
<style type="text/css">
	.st0{fill:#E89312;}
	.st1{fill:#FFFFFF;}
</style>
<g>
	<path id="XMLID_10_" class="st0" d="M64,128L64,128C28.7,128,0,99.3,0,64v0C0,28.7,28.7,0,64,0h0c35.3,0,64,28.7,64,64v0
		C128,99.3,99.3,128,64,128z"/>
	<g id="XMLID_2_">
		<path class="st1" d="M76.4,34.2c0-0.2-0.1-0.5-0.1-0.7c0-0.6,0.2-1.2,0.5-1.7c0.5-0.7,1.1-1.2,2-1.4c1.6-0.3,3.1-0.5,4.7-0.5
			c2.3,0,4.6,0.3,6.8,1c3.8,1.2,7,3.4,9.8,6.4c2.7,3,4.5,6.5,5.3,10.5c0.3,1.6,0.5,3.1,0.5,4.7c0,2.3-0.4,4.6-1.1,6.7v0.1
			c-0.3,0.8-0.8,1.4-1.6,1.8c-0.5,0.2-1,0.3-1.5,0.3c-0.3,0-0.7,0-1-0.1c-0.9-0.3-1.5-0.8-1.8-1.6c-0.2-0.5-0.3-1-0.3-1.4
			c0-0.4,0-0.7,0.1-1v-0.1c0.5-1.6,0.8-3.1,0.8-4.8c0-1-0.1-2.1-0.3-3.3c-0.6-2.8-1.9-5.3-3.8-7.5c-2-2.1-4.3-3.7-7-4.5
			c-1.6-0.5-3.2-0.7-4.8-0.7c-1.1,0-2.2,0.1-3.4,0.3c-0.2,0-0.5,0.1-0.7,0.1c-0.6,0-1.2-0.2-1.8-0.5C77.1,35.8,76.6,35.1,76.4,34.2z
			 M79.2,45c0-0.2-0.1-0.5-0.1-0.7c0-0.5,0.1-0.9,0.4-1.4c0.4-0.6,1-1,1.8-1.2c0.9-0.2,1.7-0.3,2.5-0.3c3.1,0,5.7,1.2,7.9,3.6
			c1.3,1.5,2.2,3.2,2.6,5.1c0.1,0.8,0.2,1.5,0.2,2.3c0,1.1-0.2,2.2-0.5,3.3c-0.2,0.7-0.7,1.3-1.4,1.6c-0.4,0.2-0.8,0.3-1.2,0.3
			c-0.3,0-0.6,0-0.9-0.1c-0.7-0.2-1.3-0.7-1.6-1.4c-0.2-0.4-0.3-0.8-0.3-1.2c0-0.3,0-0.6,0.1-0.9c0.2-0.6,0.3-1.2,0.3-1.8
			c0-1.3-0.5-2.4-1.4-3.4c-1-1.2-2.2-1.8-3.7-1.8c-0.5,0-0.9,0-1.4,0.1c-0.2,0-0.4,0.1-0.6,0.1c-0.5,0-1-0.2-1.4-0.5
			C79.8,46.3,79.3,45.7,79.2,45z"/>
		<path class="st1" d="M41,83.4c-0.6-1.3-0.9-2.7-0.9-4c0-1.6,0.4-3.2,1.2-4.8c1.4-2.9,3.8-5.1,7.1-6.6c2.1-0.9,4.1-1.4,6.2-1.4
			c1.2,0,2.5,0.2,3.7,0.5c3.5,0.9,6,2.8,7.5,5.6c0.8,1.5,1.2,3,1.2,4.5c0,1.5-0.3,2.9-1,4.4c-1.4,3.2-3.9,5.6-7.5,7.1
			c-2,0.9-4,1.3-6,1.3c-1.6,0-3.1-0.3-4.6-0.8C44.6,88.3,42.2,86.3,41,83.4z M44.8,82.1c0.3,1.1,1,1.9,2.1,2.4
			c0.6,0.3,1.2,0.4,1.8,0.4c0.5,0,1.1-0.1,1.6-0.3c1.3-0.4,2.3-1.2,2.9-2.3c0.5-0.7,0.7-1.5,0.7-2.2c0-0.3,0-0.9-0.1-1.4
			c-0.2-0.8-1-1.5-2.1-2c-0.6-0.2-1.2-0.3-1.8-0.3c-0.5,0-1.1,0.1-1.7,0.3c-1.2,0.4-2.2,1.1-2.8,2.2c-0.5,0.7-0.8,1.5-0.8,2.3
			C44.7,81.6,44.7,81.9,44.8,82.1z M55.5,77.6c0.3,0.1,0.5,0.2,0.8,0.2c0.2,0,0.5-0.1,0.8-0.2c0.6-0.2,1-0.6,1.3-1.1s0.3-1,0.2-1.5
			c-0.2-0.5-0.5-0.8-1-1.1c-0.5-0.2-1-0.1-1.6,0c-0.6,0.2-1,0.5-1.3,1c-0.2,0.3-0.4,0.9-0.2,1.5C54.6,77.1,55,77.4,55.5,77.6z"/>
		<path class="st1" d="M21.5,75.9c0-7.3,4.2-15.3,12.6-23.7c5.3-5.3,10.7-9,16.2-11.1c2.6-1,4.8-1.6,6.6-1.6c2.1,0,3.7,0.6,4.9,1.8
			c1.2,1.2,1.8,2.8,1.8,4.9c0,1.4-0.3,3.1-0.8,4.9c-0.2,0.6-0.1,1,0.2,1.2c0.3,0.2,0.7,0.2,1.1,0l0.7-0.3c4.4-1.8,8.3-2.7,11.6-2.7
			s5.8,1,7.3,2.9c0.7,1,1,2.2,1,3.6c0,1.4-0.4,3-1.1,4.9c-0.3,0.5-0.4,0.8-0.2,1.2c0.2,0.3,0.4,0.5,0.5,0.6s0.5,0.2,1,0.3
			c2.8,0.9,5.2,2.3,7.3,4.2c2,2,3,4.4,3,7.3c0,2.7-0.9,5.4-2.8,8.2S88,88,84.7,90.3c-3.2,2.3-7.3,4.2-12.2,5.7
			c-4.9,1.5-10.1,2.3-15.6,2.3c-6,0-11.6-0.9-16.9-2.6s-9.7-4.4-13.2-7.9S21.5,80.4,21.5,75.9z M30,79.2c0.5,4.6,3.3,8.3,8.6,11
			c4.2,2.2,9,3.4,14.3,3.4c1.3,0,2.7-0.1,4.1-0.2c7-0.7,12.8-2.9,17.5-6.6c4.2-3.4,6.3-7.2,6.3-11.3c0-0.4,0-0.8-0.1-1.2
			c-0.5-4.6-3.3-8.2-8.6-11c-4.2-2.2-9-3.4-14.4-3.4c-1.3,0-2.7,0.1-4,0.2c-4.6,0.5-8.8,1.6-12.5,3.5c-3.7,1.9-6.6,4.2-8.6,6.9
			c-1.7,2.4-2.6,4.9-2.6,7.5C30,78.4,30,78.8,30,79.2z"/>
	</g>
</g>
</svg>
